HIERARCHY
ROOT Hips
{
	OFFSET 0.000000 0.000000 0.000000
	CHANNELS 6 Xposition Yposition Zposition Zrotation Yrotation Xrotation 
	JOINT LHipJoint
	{
		OFFSET 0.000000 0.000000 0.000000
		CHANNELS 3 Zrotation Yrotation Xrotation
		JOINT LeftUpLeg
		{
			OFFSET 1.363060 -1.794630 0.839290
			CHANNELS 3 Zrotation Yrotation Xrotation
			JOINT LeftLeg
			{
				OFFSET 2.448110 -6.726130 0.000000
				CHANNELS 3 Zrotation Yrotation Xrotation
				JOINT LeftFoot
				{
					OFFSET 2.562200 -7.039590 0.000000
					CHANNELS 3 Zrotation Yrotation Xrotation
					JOINT LeftToeBase
					{
						OFFSET 0.157640 -0.433110 2.322550
						CHANNELS 3 Zrotation Yrotation Xrotation
						End Site
						{
							OFFSET 0.000000 0.000000 0.000000
						}
					}
				}
			}
		}
	}
	JOINT RHipJoint
	{
		OFFSET 0.000000 0.000000 0.000000
		CHANNELS 3 Zrotation Yrotation Xrotation
		JOINT RightUpLeg
		{
			OFFSET -1.305520 -1.794630 0.839290
			CHANNELS 3 Zrotation Yrotation Xrotation
			JOINT RightLeg
			{
				OFFSET -2.542530 -6.985550 0.000000
				CHANNELS 3 Zrotation Yrotation Xrotation
				JOINT RightFoot
				{
					OFFSET -2.568260 -7.056230 0.000000
					CHANNELS 3 Zrotation Yrotation Xrotation
					JOINT RightToeBase
					{
						OFFSET -0.164730 -0.452590 2.363150
						CHANNELS 3 Zrotation Yrotation Xrotation
						End Site
						{
							OFFSET 0.000000 0.000000 0.000000
						}
					}
				}
			}
		}
	}
	JOINT LowerBack
	{
		OFFSET 0.000000 0.000000 0.000000
		CHANNELS 3 Zrotation Yrotation Xrotation
		JOINT Spine
		{
			OFFSET 0.028270 2.035590 -0.193380
			CHANNELS 3 Zrotation Yrotation Xrotation
			JOINT Spine1
			{
				OFFSET 0.056720 2.048850 -0.042750
				CHANNELS 3 Zrotation Yrotation Xrotation
				JOINT Neck
				{
					OFFSET 0.000000 0.000000 0.000000
					CHANNELS 3 Zrotation Yrotation Xrotation
					JOINT Neck1
					{
						OFFSET -0.054170 1.746240 0.172020
						CHANNELS 3 Zrotation Yrotation Xrotation
						JOINT Head
						{
							OFFSET 0.104070 1.761360 -0.123970
							CHANNELS 3 Zrotation Yrotation Xrotation
							End Site
							{
								OFFSET 0.000000 0.000000 0.000000
							}
						}
					}
				}
				JOINT LeftShoulder
				{
					OFFSET 0.000000 0.000000 0.000000
					CHANNELS 3 Zrotation Yrotation Xrotation
					JOINT LeftArm
					{
						OFFSET 3.362410 1.200890 -0.311210
						CHANNELS 3 Zrotation Yrotation Xrotation
						JOINT LeftForeArm
						{
							OFFSET 4.983000 -0.000000 -0.000000
							CHANNELS 3 Zrotation Yrotation Xrotation
							JOINT LeftHand
							{
								OFFSET 3.483560 -0.000000 -0.000000
								CHANNELS 3 Zrotation Yrotation Xrotation
								JOINT LeftFingerBase
								{
									OFFSET 0.000000 0.000000 0.000000
									CHANNELS 3 Zrotation Yrotation Xrotation
									JOINT LeftHandIndex1
									{
										OFFSET 0.715260 -0.000000 -0.000000
										CHANNELS 3 Zrotation Yrotation Xrotation
										End Site
										{
											OFFSET 0.000000 0.000000 0.000000
										}
									}
								}
								JOINT LThumb
								{
									OFFSET 0.000000 0.000000 0.000000
									CHANNELS 3 Zrotation Yrotation Xrotation
									End Site
									{
										OFFSET 0.000000 0.000000 0.000000
									}
								}
							}
						}
					}
				}
				JOINT RightShoulder
				{
					OFFSET 0.000000 0.000000 0.000000
					CHANNELS 3 Zrotation Yrotation Xrotation
					JOINT RightArm
					{
						OFFSET -3.136600 1.374050 -0.404650
						CHANNELS 3 Zrotation Yrotation Xrotation
						JOINT RightForeArm
						{
							OFFSET -5.241900 -0.000000 -0.000000
							CHANNELS 3 Zrotation Yrotation Xrotation
							JOINT RightHand
							{
								OFFSET -3.444170 -0.000000 -0.000000
								CHANNELS 3 Zrotation Yrotation Xrotation
								JOINT RightFingerBase
								{
									OFFSET 0.000000 0.000000 0.000000
									CHANNELS 3 Zrotation Yrotation Xrotation
									JOINT RightHandIndex1
									{
										OFFSET -0.622530 -0.000000 -0.000000
										CHANNELS 3 Zrotation Yrotation Xrotation
										End Site
										{
											OFFSET 0.000000 0.000000 0.000000
										}
									}
								}
								JOINT RThumb
								{
									OFFSET 0.000000 0.000000 0.000000
									CHANNELS 3 Zrotation Yrotation Xrotation
									End Site
									{
										OFFSET 0.000000 0.000000 0.000000
									}
								}
							}
						}
					}
				}
			}
		}
	}
}
MOTION
Frames: 5
Frame Time: 0.008333
2.830599 16.868978 1.546878 -51.048051 -66.778513 50.964809 -14.982637 -4.675738 -5.029115 7.650310 -9.477179 -10.545820 -0.475207 2.863230 35.217839 0.789629 2.979529 -15.548929 -0.487900 0.000000 -39.199400 3.404947 6.892438 2.790093 -9.261115 -18.930220 -101.536444 2.015939 1.148446 -0.842414 -1.643933 -8.876777 10.560500 -3.972300 0.000000 -77.896600 14.760193 -3.239107 8.172392 1.613417 -3.505049 -1.901185 -8.416985 -3.586781 -1.784249 12.308368 -2.595905 -1.491233 -4.414610 -0.353674 1.452416 0.000000 0.000000 0.000000 -3.538500 -8.383815 1.934320 -64.956999 -17.066300 3.315478 -2.026628 -35.790830 -0.022624 7.535703 -3.962418 -0.276615 -0.057478 0.210662 0.000000 0.000000 0.000000 0.000000 0.000000 0.000000 0.000000 19.021776 -4.035678 2.136249 59.344654 6.092753 -17.936156 3.507591 10.905691 0.007313 -5.719657 9.192921 -0.471441 0.092548 -0.081144 0.000000 0.000000 0.000000 0.000000 0.000000 0.000000 0.000000 
2.845578 16.871510 1.556960 -51.414080 -66.806832 50.971671 -14.981954 -4.587963 -4.905840 7.632966 -9.335138 -10.262744 -0.467466 2.828824 34.974109 0.784756 2.946154 -15.468488 -0.480500 0.000001 -38.930900 3.381200 6.834268 2.515436 -9.346293 -18.213739 -99.978467 2.071055 0.712796 1.856388 -1.467787 -8.057501 12.432067 -3.824800 0.000001 -76.747500 14.803368 -3.207095 8.165589 1.624375 -3.480150 -1.886546 -8.384658 -3.557163 -1.700880 12.212899 -2.838523 -1.616720 -4.409343 -0.352739 1.420183 0.000000 0.000000 0.000000 -3.776234 -7.948660 1.908773 -65.633954 -17.272088 3.253430 -2.048973 -34.315214 -0.022701 7.681879 -3.650520 -0.260339 -0.056562 0.204040 0.000000 0.000000 0.000000 0.000000 0.000000 0.000000 0.000000 18.958336 -4.212231 2.056849 59.658016 6.249737 -17.464954 3.576234 11.297127 0.008255 -4.778622 8.766635 -0.376732 0.093527 -0.079282 0.000000 0.000000 0.000000 0.000000 0.000000 0.000000 0.000000 
2.861051 16.875948 1.567552 -51.844847 -66.843122 51.001619 -14.976920 -4.497075 -4.788733 7.613129 -9.177819 -9.889124 -0.457779 2.792644 34.652437 0.781630 2.926088 -15.356843 -0.473200 0.000000 -38.667900 3.337108 6.781474 2.193647 -9.333914 -17.393407 -98.080416 2.112792 0.344949 4.107609 -1.303981 -7.231570 14.207668 -3.609500 0.000000 -74.516800 14.848609 -3.183082 8.214777 1.636701 -3.458080 -1.861260 -8.351852 -3.530894 -1.626600 12.121664 -3.059444 -1.753546 -4.401698 -0.351525 1.384225 0.000000 0.000000 0.000000 -3.992087 -7.487526 1.890774 -66.303609 -17.414331 3.254045 -2.071497 -32.894453 -0.022582 7.778791 -3.354106 -0.242861 -0.055513 0.197632 0.000000 0.000000 0.000000 0.000000 0.000000 0.000000 0.000000 18.890120 -4.346220 1.982837 59.964028 6.343456 -16.683019 3.653941 11.832022 0.009231 -3.749541 8.335738 -0.282423 0.094048 -0.076527 0.000000 0.000000 0.000000 0.000000 0.000000 0.000000 0.000000 
2.876159 16.882518 1.577730 -52.286366 -66.911661 51.039851 -14.959345 -4.402133 -4.678887 7.557457 -9.009231 -9.467043 -0.448015 2.752350 34.258343 0.781038 2.925117 -15.212497 -0.466800 -0.000000 -38.411200 3.297354 6.726593 1.858596 -9.218666 -16.476367 -95.940749 2.150422 0.057770 5.879933 -1.166671 -6.471761 15.653657 -3.352600 -0.000000 -71.783701 14.858345 -3.162650 8.288374 1.642617 -3.436308 -1.833847 -8.320100 -3.505649 -1.568285 12.044636 -3.250009 -1.889779 -4.393207 -0.350312 1.348384 0.000000 0.000000 0.000000 -4.167151 -7.046275 1.879350 -66.955057 -17.417691 3.303894 -2.093430 -31.597054 -0.022203 7.812205 -3.092101 -0.225379 -0.054262 0.191314 0.000000 0.000000 0.000000 0.000000 0.000000 0.000000 0.000000 18.831641 -4.433437 1.916476 60.260318 6.356714 -15.639771 3.735023 12.505557 0.010159 -2.662681 7.924985 -0.192414 0.093939 -0.073032 0.000000 0.000000 0.000000 0.000000 0.000000 0.000000 0.000000 
2.889835 16.891305 1.586649 -52.687315 -67.031866 51.071020 -14.922383 -4.301282 -4.573803 7.438915 -8.834801 -9.039866 -0.440008 2.705711 33.801740 0.783348 2.945933 -15.036776 -0.462100 0.000001 -38.160200 3.283243 6.662318 1.538989 -8.987345 -15.479837 -93.689542 2.193287 -0.155577 7.241168 -1.060256 -5.837350 16.630980 -3.094800 -0.000000 -69.253601 14.800334 -3.142474 8.354253 1.635457 -3.413619 -1.810415 -8.290765 -3.479806 -1.522458 11.989802 -3.416371 -2.023962 -4.385125 -0.349257 1.313511 0.000000 0.000000 0.000000 -4.291166 -6.625499 1.871654 -67.576416 -17.267379 3.428022 -2.117855 -30.444463 -0.021521 7.776484 -2.881809 -0.209491 -0.053043 0.184987 0.000000 0.000000 0.000000 0.000000 0.000000 0.000000 0.000000 18.797904 -4.483691 1.855504 60.542820 6.294650 -14.378348 3.814368 13.301479 0.010974 -1.554999 7.554526 -0.109506 0.093143 -0.068954 0.000000 0.000000 0.000000 0.000000 0.000000 0.000000 0.000000 
